<svg xmlns="http://www.w3.org/2000/svg" width="19.92" height="17.72" viewBox="0 0 19.92 17.72"><title>Ресурс 4</title><g id="Слой_2" data-name="Слой 2"><g id="UI"><path d="M3.09,5.75C4,5,4.8,5.52,5.83,6.72c.12.14.27,0,.36-.1L7.71,5.26a.19.19,0,0,0,0-.29c-.11-.12-.49-.62-.74-1C5.2,1.65,12,0,10.92,0c-.53,0-2.65,0-3,0C6.67.15,5.06,1.35,4.25,1.91A10.15,10.15,0,0,0,2.73,3.12c-.3.26,0,.87-.59,1.34s-.93.12-1.27.41c-.17.15-.63.49-.76.61A.32.32,0,0,0,.09,6L1.46,7.48A.43.43,0,0,0,2,7.55l.71-.62C2.81,6.86,2.69,6.06,3.09,5.75Zm5.71.52a.26.26,0,0,0-.4,0L7,7.49a.29.29,0,0,0,0,.4l8.29,9.44a.53.53,0,0,0,.75.05l1-.81a.54.54,0,0,0,.05-.76Zm11.06-4c-.07-.49-.33-.39-.46-.18s-.72,1.1-1,1.51A1.2,1.2,0,0,1,16.5,4c-1.15-.81-.75-1.38-.55-1.76s.82-1.46.91-1.59a.27.27,0,0,0-.37-.36c-.36.16-2.52,1-2.82,2.26s.26,2.38-.85,3.49l-1.34,1.4L12.82,9l1.65-1.57a2.34,2.34,0,0,1,2-.61,2.45,2.45,0,0,0,3.06-1.26A7.19,7.19,0,0,0,19.86,2.25ZM2.7,15.91a.54.54,0,0,0,0,.76l1,.93a.53.53,0,0,0,.75-.09L9.3,12.69,7.8,11Z" fill="#fff"/></g></g></svg>